<?xml version="1.0" encoding="utf-8"?>
<!-- Generator: Adobe Illustrator 24.2.1, SVG Export Plug-In . SVG Version: 6.00 Build 0)  -->
<!DOCTYPE svg PUBLIC "-//W3C//DTD SVG 1.1//EN" "http://www.w3.org/Graphics/SVG/1.1/DTD/svg11.dtd" [
	<!ENTITY ns_extend "http://ns.adobe.com/Extensibility/1.0/">
	<!ENTITY ns_ai "http://ns.adobe.com/AdobeIllustrator/10.0/">
	<!ENTITY ns_graphs "http://ns.adobe.com/Graphs/1.0/">
	<!ENTITY ns_vars "http://ns.adobe.com/Variables/1.0/">
	<!ENTITY ns_imrep "http://ns.adobe.com/ImageReplacement/1.0/">
	<!ENTITY ns_sfw "http://ns.adobe.com/SaveForWeb/1.0/">
	<!ENTITY ns_custom "http://ns.adobe.com/GenericCustomNamespace/1.0/">
	<!ENTITY ns_adobe_xpath "http://ns.adobe.com/XPath/1.0/">
]>
<svg version="1.1" id="Layer_1" xmlns:x="&ns_extend;" xmlns:i="&ns_ai;" xmlns:graph="&ns_graphs;"
	 xmlns="http://www.w3.org/2000/svg" xmlns:xlink="http://www.w3.org/1999/xlink" x="0px" y="0px" viewBox="0 0 228.52 69.48"
	 style="enable-background:new 0 0 228.52 69.48;" xml:space="preserve">
<metadata>
	<sfw  xmlns="&ns_sfw;">
		<slices></slices>
		<sliceSourceBounds  bottomLeftOrigin="true" height="69.48" width="226.77" x="180.39" y="-299.77"></sliceSourceBounds>
		<optimizationSettings>
			<targetSettings  fileFormat="JPEGFormat" targetSettingsID="0">
				
					<JPEGFormat  blurAmount="0" embedICCProfile="false" matteColor="#FFFFFF" noMatteColor="false" optimized="true" progressive="true" quality="100">
					</JPEGFormat>
			</targetSettings>
		</optimizationSettings>
	</sfw>
</metadata>
<g>
	<path style="fill:#8C1D82;" d="M34.74,5.71c16.01,0,29.03,13.02,29.03,29.03c0,16.01-13.02,29.03-29.03,29.03
		c-16.01,0-29.03-13.02-29.03-29.03C5.71,18.73,18.73,5.71,34.74,5.71 M34.74,0C15.55,0,0,15.55,0,34.74s15.55,34.74,34.74,34.74
		c19.19,0,34.74-15.55,34.74-34.74S53.92,0,34.74,0L34.74,0z"/>
	<g>
		<path style="fill:#8C1D82;" d="M14.1,23.09h19.73v5.99h-12.9v4.19h11.66v5.67H20.93v8.81H14.1V23.09z"/>
		<path style="fill:#8C1D82;" d="M35.2,23.09h11.66c3.77,0,6.38,0.99,8.03,2.64c1.44,1.44,2.18,3.31,2.18,5.74v0.07
			c0,3.81-2.01,6.31-5.07,7.61l5.88,8.6h-7.86l-4.97-7.47h-3.03v7.47H35.2V23.09z M46.58,34.93c2.29,0,3.66-1.13,3.66-2.93v-0.07
			c0-1.97-1.44-2.96-3.7-2.96h-4.51v5.96H46.58z"/>
	</g>
</g>
<g>
	<path style="fill:#8C1D82;" d="M82.9,24.16h10.7v1.04h-9.57v6.23h8.6v1.04h-8.6v6.88H82.9V24.16z"/>
	<path style="fill:#8C1D82;" d="M95.82,33.04v-8.88h1.13v8.77c0,3.58,1.93,5.64,5.14,5.64c3.08,0,5.06-1.87,5.06-5.54v-8.88h1.13
		v8.75c0,4.36-2.54,6.68-6.23,6.68C98.4,39.59,95.82,37.29,95.82,33.04z"/>
	<path style="fill:#8C1D82;" d="M111.47,24.16h1.06l10.48,13.22V24.16h1.09v15.19h-0.85l-10.7-13.5v13.5h-1.09V24.16z"/>
	<path style="fill:#8C1D82;" d="M127.54,24.16h5.06c4.77,0,8.07,3.28,8.07,7.55v0.04c0,4.28-3.3,7.6-8.07,7.6h-5.06V24.16z
		 M132.6,38.31c4.23,0,6.9-2.89,6.9-6.51v-0.04c0-3.6-2.67-6.55-6.9-6.55h-3.93v13.11H132.6z"/>
	<path style="fill:#8C1D82;" d="M143.43,24.16h6.38c1.87,0,3.37,0.59,4.28,1.5c0.72,0.72,1.15,1.74,1.15,2.82v0.04
		c0,2.54-1.89,3.99-4.45,4.34l5.01,6.49h-1.43l-4.84-6.29h-4.97v6.29h-1.13V24.16z M149.68,32.04c2.54,0,4.43-1.28,4.43-3.47v-0.04
		c0-2.04-1.61-3.32-4.36-3.32h-5.19v6.84H149.68z"/>
	<path style="fill:#8C1D82;" d="M163.82,24.05h1.09l7.07,15.3h-1.24l-1.93-4.25h-8.96l-1.93,4.25h-1.17L163.82,24.05z M168.33,34.08
		l-3.99-8.79l-4.01,8.79H168.33z"/>
	<path style="fill:#8C1D82;" d="M174.26,24.16h1.13v15.19h-1.13V24.16z"/>
	<path style="fill:#8C1D82;" d="M178,37.14l0.74-0.85c1.67,1.54,3.21,2.26,5.45,2.26c2.28,0,3.84-1.28,3.84-3.02v-0.04
		c0-1.61-0.85-2.54-4.3-3.23c-3.65-0.74-5.12-1.98-5.12-4.28v-0.04c0-2.26,2.06-3.99,4.89-3.99c2.21,0,3.67,0.61,5.21,1.85
		l-0.72,0.89c-1.43-1.24-2.87-1.71-4.54-1.71c-2.24,0-3.71,1.28-3.71,2.86v0.04c0,1.61,0.82,2.58,4.43,3.32
		c3.52,0.72,4.99,1.97,4.99,4.19v0.04c0,2.45-2.11,4.15-5.04,4.15C181.68,39.57,179.82,38.77,178,37.14z"/>
	<path style="fill:#8C1D82;" d="M191.93,24.16h1.13v15.19h-1.13V24.16z"/>
	<path style="fill:#8C1D82;" d="M196.65,24.16h1.06l10.48,13.22V24.16h1.09v15.19h-0.85l-10.7-13.5v13.5h-1.09V24.16z"/>
	<path style="fill:#8C1D82;" d="M212.04,31.8v-0.04c0-4.1,2.97-7.86,7.51-7.86c2.47,0,4.04,0.74,5.56,2l-0.74,0.85
		c-1.19-1.04-2.58-1.82-4.88-1.82c-3.69,0-6.27,3.13-6.27,6.79v0.04c0,3.93,2.45,6.86,6.51,6.86c1.93,0,3.73-0.8,4.84-1.74v-4.36
		h-5.08v-1.04h6.16v5.86c-1.37,1.22-3.49,2.28-5.97,2.28C214.88,39.61,212.04,36.08,212.04,31.8z"/>
	<path style="fill:#575756;" d="M82.69,43.17h7.79c2.17,0,3.84,0.61,4.96,1.73c0.95,0.95,1.46,2.29,1.46,3.89v0.05
		c0,2.75-1.48,4.48-3.65,5.28l4.16,6.08h-4.38l-3.65-5.45h-2.94v5.45h-3.75V43.17z M90.23,51.44c1.82,0,2.87-0.97,2.87-2.41v-0.05
		c0-1.61-1.12-2.43-2.94-2.43h-3.72v4.89H90.23z"/>
	<path style="fill:#575756;" d="M99.05,43.17h12.85v3.33h-9.12v3.46h8.03v3.33h-8.03v3.58h9.25v3.33H99.05V43.17z"/>
	<path style="fill:#575756;" d="M113.37,51.73v-0.05c0-4.84,3.77-8.81,8.93-8.81c3.07,0,4.92,0.83,6.69,2.34l-2.36,2.85
		c-1.31-1.1-2.48-1.73-4.45-1.73c-2.73,0-4.89,2.41-4.89,5.3v0.05c0,3.11,2.14,5.4,5.16,5.4c1.36,0,2.58-0.34,3.53-1.02v-2.43h-3.77
		v-3.23h7.4v7.4c-1.75,1.48-4.16,2.7-7.28,2.7C117.02,60.49,113.37,56.77,113.37,51.73z"/>
	<path style="fill:#575756;" d="M131.71,52.9v-9.73h3.75v9.63c0,2.77,1.39,4.21,3.67,4.21s3.67-1.39,3.67-4.09v-9.75h3.75v9.61
		c0,5.16-2.9,7.69-7.47,7.69C134.51,60.46,131.71,57.91,131.71,52.9z"/>
	<path style="fill:#575756;" d="M149.14,43.17h3.75v13.62h8.49v3.41h-12.24V43.17z"/>
	<path style="fill:#575756;" d="M168.82,43.04h3.46l7.3,17.15h-3.92l-1.56-3.82h-7.2l-1.56,3.82h-3.82L168.82,43.04z M172.76,53.07
		l-2.26-5.52l-2.26,5.52H172.76z"/>
	<path style="fill:#575756;" d="M182.75,46.62h-5.18v-3.45h14.11v3.45h-5.18V60.2h-3.75V46.62z"/>
	<path style="fill:#575756;" d="M191.84,51.73v-0.05c0-4.84,3.82-8.81,9.07-8.81c5.26,0,9.03,3.92,9.03,8.76v0.05
		c0,4.84-3.82,8.81-9.07,8.81C195.62,60.49,191.84,56.57,191.84,51.73z M206.03,51.73v-0.05c0-2.92-2.14-5.35-5.16-5.35
		c-3.02,0-5.11,2.38-5.11,5.3v0.05c0,2.92,2.14,5.35,5.16,5.35C203.94,57.03,206.03,54.65,206.03,51.73z"/>
	<path style="fill:#575756;" d="M212.05,43.17h7.79c2.16,0,3.84,0.61,4.96,1.73c0.95,0.95,1.46,2.29,1.46,3.89v0.05
		c0,2.75-1.48,4.48-3.65,5.28l4.16,6.08h-4.38l-3.65-5.45h-2.94v5.45h-3.75V43.17z M219.59,51.44c1.83,0,2.87-0.97,2.87-2.41v-0.05
		c0-1.61-1.12-2.43-2.94-2.43h-3.72v4.89H219.59z"/>
	<g>
		<path style="fill:#575756;" d="M82.87,7.38h4.05c1.14,0,2.04,0.34,2.62,0.91c0.48,0.49,0.75,1.17,0.75,1.96v0.03
			c0,1.49-0.9,2.39-2.15,2.75l2.45,3.44h-1.89l-2.23-3.17h-2v3.17h-1.6V7.38z M86.8,11.88c1.14,0,1.87-0.6,1.87-1.52v-0.03
			c0-0.97-0.7-1.5-1.88-1.5h-2.32v3.05H86.8z"/>
		<path style="fill:#575756;" d="M91.58,13.06v-0.03c0-1.96,1.39-3.57,3.35-3.57c2.18,0,3.28,1.71,3.28,3.69
			c0,0.14-0.01,0.29-0.03,0.44h-5.03c0.17,1.12,0.96,1.74,1.97,1.74c0.77,0,1.31-0.29,1.86-0.82l0.92,0.82
			c-0.65,0.78-1.54,1.28-2.8,1.28C93.12,16.62,91.58,15.18,91.58,13.06z M96.66,12.55c-0.1-1.01-0.7-1.8-1.74-1.8
			c-0.96,0-1.63,0.74-1.78,1.8H96.66z"/>
		<path style="fill:#575756;" d="M99.77,17.74l0.58-1.18c0.74,0.45,1.51,0.73,2.44,0.73c1.4,0,2.17-0.73,2.17-2.1v-0.53
			c-0.57,0.74-1.28,1.26-2.41,1.26c-1.61,0-3.11-1.19-3.11-3.21v-0.03c0-2.02,1.52-3.22,3.11-3.22c1.15,0,1.87,0.53,2.4,1.17V9.61
			h1.57v5.45c0,1.15-0.3,2.01-0.87,2.58c-0.62,0.62-1.58,0.92-2.82,0.92C101.7,18.56,100.65,18.28,99.77,17.74z M104.97,12.7v-0.03
			c0-1.12-0.92-1.88-2.01-1.88c-1.09,0-1.95,0.75-1.95,1.88v0.03c0,1.12,0.87,1.88,1.95,1.88C104.05,14.58,104.97,13.81,104.97,12.7
			z"/>
		<path style="fill:#575756;" d="M108.49,7.07h1.69v1.49h-1.69V7.07z M108.56,9.61h1.57v6.85h-1.57V9.61z"/>
		<path style="fill:#575756;" d="M111.58,15.56l0.7-1.06c0.75,0.56,1.54,0.84,2.24,0.84c0.67,0,1.06-0.29,1.06-0.74v-0.03
			c0-0.53-0.73-0.71-1.53-0.96c-1.01-0.29-2.14-0.7-2.14-2.01v-0.03c0-1.3,1.08-2.09,2.44-2.09c0.86,0,1.79,0.3,2.52,0.78
			l-0.62,1.12c-0.66-0.4-1.36-0.65-1.93-0.65c-0.61,0-0.96,0.29-0.96,0.67v0.03c0,0.51,0.74,0.71,1.54,0.97c1,0.31,2.13,0.77,2.13,2
			v0.03c0,1.44-1.12,2.15-2.54,2.15C113.51,16.59,112.43,16.24,111.58,15.56z"/>
		<path style="fill:#575756;" d="M118.95,14.57v-3.61h-0.87V9.61h0.87V7.73h1.57v1.88h1.84v1.35h-1.84v3.36
			c0,0.61,0.31,0.86,0.84,0.86c0.35,0,0.66-0.08,0.97-0.23v1.28c-0.39,0.22-0.82,0.35-1.41,0.35
			C119.76,16.58,118.95,16.07,118.95,14.57z"/>
		<path style="fill:#575756;" d="M123.38,13.06v-0.03c0-1.96,1.39-3.57,3.35-3.57c2.18,0,3.28,1.71,3.28,3.69
			c0,0.14-0.01,0.29-0.03,0.44h-5.03c0.17,1.12,0.96,1.74,1.97,1.74c0.77,0,1.31-0.29,1.86-0.82l0.92,0.82
			c-0.65,0.78-1.54,1.28-2.8,1.28C124.91,16.62,123.38,15.18,123.38,13.06z M128.45,12.55c-0.1-1.01-0.7-1.8-1.74-1.8
			c-0.96,0-1.63,0.74-1.78,1.8H128.45z"/>
		<path style="fill:#575756;" d="M131.62,9.61h1.57v1.54c0.43-1.02,1.22-1.73,2.43-1.67v1.66h-0.09c-1.38,0-2.34,0.9-2.34,2.71v2.61
			h-1.57V9.61z"/>
		<path style="fill:#575756;" d="M136.5,13.06v-0.03c0-1.96,1.39-3.57,3.35-3.57c2.18,0,3.28,1.71,3.28,3.69
			c0,0.14-0.01,0.29-0.03,0.44h-5.03c0.17,1.12,0.96,1.74,1.97,1.74c0.77,0,1.31-0.29,1.86-0.82l0.92,0.82
			c-0.65,0.78-1.54,1.28-2.8,1.28C138.03,16.62,136.5,15.18,136.5,13.06z M141.57,12.55c-0.1-1.01-0.7-1.8-1.74-1.8
			c-0.96,0-1.63,0.74-1.78,1.8H141.57z"/>
		<path style="fill:#575756;" d="M144.37,13.05v-0.03c0-2.27,1.54-3.55,3.18-3.55c1.13,0,1.84,0.56,2.34,1.21V6.99h1.57v9.47h-1.57
			v-1.14c-0.51,0.71-1.22,1.28-2.34,1.28C145.94,16.6,144.37,15.32,144.37,13.05z M149.91,13.05v-0.03c0-1.32-0.93-2.19-1.99-2.19
			c-1.08,0-1.97,0.83-1.97,2.19v0.03c0,1.32,0.91,2.19,1.97,2.19C148.98,15.24,149.91,14.36,149.91,13.05z"/>
		<path style="fill:#575756;" d="M156.75,9.61h1.61l1.38,4.7l1.52-4.72h1.35l1.52,4.72l1.4-4.7h1.58l-2.24,6.9h-1.41l-1.53-4.68
			l-1.54,4.68h-1.4L156.75,9.61z"/>
		<path style="fill:#575756;" d="M168.39,7.07h1.69v1.49h-1.69V7.07z M168.45,9.61h1.57v6.85h-1.57V9.61z"/>
		<path style="fill:#575756;" d="M172.32,14.57v-3.61h-0.87V9.61h0.87V7.73h1.57v1.88h1.84v1.35h-1.84v3.36
			c0,0.61,0.31,0.86,0.84,0.86c0.35,0,0.66-0.08,0.97-0.23v1.28c-0.39,0.22-0.82,0.35-1.41,0.35
			C173.14,16.58,172.32,16.07,172.32,14.57z"/>
		<path style="fill:#575756;" d="M177.32,6.99h1.57v3.67c0.44-0.64,1.08-1.19,2.14-1.19c1.54,0,2.44,1.04,2.44,2.62v4.37h-1.57
			v-3.89c0-1.06-0.53-1.67-1.47-1.67c-0.91,0-1.54,0.64-1.54,1.7v3.87h-1.57V6.99z"/>
	</g>
</g>
<g>
</g>
<g>
</g>
<g>
</g>
<g>
</g>
<g>
</g>
<g>
</g>
</svg>
