<svg xmlns="http://www.w3.org/2000/svg" viewBox="0 0 180 66"><!--  width="180px" height="66px" --><defs><style>.logo-1,.logo-2{fill:#44841A}.logo-1{fill-rule:evenodd}</style></defs><path class="logo-1" d="M771.69 1998a30.35 30.35 0 1 1-30.34-30.4 30.37 30.37 0 0 1 30.34 30.4zm-42.43-6.82h5.54a.33.33 0 0 0 .31-.31 6.31 6.31 0 0 1 12.48 0 .33.33 0 0 0 .32.31h5.52a.31.31 0 0 0 .31-.31 12.43 12.43 0 0 0-24.79 0 .31.31 0 0 0 .31.35zm18 11.54a12.44 12.44 0 0 0 6.43-10 .31.31 0 0 0-.31-.31h-5.53a.32.32 0 0 0-.32.31 6.3 6.3 0 0 1-12.47 0 .32.32 0 0 0-.31-.31h-5.54a.31.31 0 0 0-.31.31 12.46 12.46 0 0 0 6.43 10 12.44 12.44 0 0 0-6.46 10.61.31.31 0 0 0 .31.31h5.51a.31.31 0 0 0 .31-.31 6.31 6.31 0 0 1 12.6 0 .31.31 0 0 0 .31.31h5.5a.31.31 0 0 0 .31-.31 12.44 12.44 0 0 0-6.42-10.57zM795.91 2001.33c0 1.83-1.87 2.45-3 2.45s-3-.62-3-2.45v-10c0-1.83 1.88-2.45 3-2.45s3 .62 3 2.45zm-3-17.24c-5.3 0-7.76 3.74-7.76 6.91v10.7c0 3.16 2.46 6.89 7.76 6.9s7.77-3.74 7.77-6.9V1991c.03-3.17-2.43-6.89-7.74-6.91z" transform="translate(-711 -1967.64)"></path><path class="logo-1" d="M115.99 40.53v-9.32h7.16v-4.78h-7.13v-4.74h8.31v-4.8H111.2v23.64h4.79"></path><path class="logo-1" d="M843.45 1991.9l1.92 7.44h-3.87zm4.19 16.27h4.79l-6.26-23.64h-5.59l-6.16 23.64h4.81l1.09-4.19h6.25z" transform="translate(-711 -1967.64)"></path><path class="logo-1" d="M102.64 28.69l6.11-11.8h-5.54l-3.35 6.88-3.34-6.88h-5.54l6.11 11.8-6.15 11.84h5.61l3.31-6.87 3.32 6.87h5.6l-6.14-11.84M156.86 16.89l-4.22 9.09-4.28-9.09h-4.92v23.64h4.69V27.08l3.02 6.29h2.99l3.01-6.27v13.43h4.69V16.89h-4.98"></path></svg>
