<?xml version="1.0" encoding="UTF-8" standalone="no"?>
<svg
   xmlns:svg="http://www.w3.org/2000/svg"
   xmlns="http://www.w3.org/2000/svg"
   viewBox="0 0 585 117"
   preserveAspectRatio="xMidYMid meet"
   height="117"
   width="585"
   >
  <g class="logo--new icon--stc-logo">
    <path fill="#da291c" class="logo__icon stc-logo"
      d="m 100.90001,28.8 c 4.8,-5.6 6.9,-8.2 6.4,-9.7 -0.3,-1.1 -1.5,-2 -3.1,-2.6 -1.8,-0.7 -4.30001,-1 -5.50001,-0.3 -0.4,0.2 -1.1,1 -2.7,2.8 l -1.5,1.7 v 0 c -1,-1 -2,-2 -3,-2.8 C 84.2,11.5 75.3,7.4000008 65.6,5.9000008 c -3.9,-4.1 -8.9,-6.00000001 -13.9,-5.3 -4.2,0.7 -7.9,3.2 -10.4,7 C 31.5,10.6 22.6,16.2 15.6,23.9 v 0 c -1.6,-0.5 -5,0.1 -7.2,1.3 -1.2,0.7 -1.9,1.5 -2.1,2.3 -0.1,0.7 0.2,1.7 2.8,4.8 v 0 c -6.9,11 -9.9,24 -8.4,36.6 1.5,13 7.7,24.7 17.3,33.1 3.4,3 7.2,5.5 11.2,7.4 5.8,2.8 12.2,4.8 19.1,5.7 14.4,1.9 28.3,-1.2 39.8,-7.8 v 0 c 1.5,-0.8 2,-2.6 1.3,-4.2 l -0.2,-0.5 c -3,-6.6 -12,-26.9 -7,-45.3 2.1,-7.7 8.2,-15.9 13.4,-22.4 v 0 c 5.60001,8.7 8.40001,19 8.00001,29.1 -0.4,9.6 -3.50001,18.5 -9.20001,26 -0.2,0.2 -0.3,0.5 -0.2,0.8 0,0.1 0,0.2 0.1,0.3 l 0.6,1.3 c 0.2,0.4 0.6,0.7 1.1,0.6 0.3,0 0.6,-0.2 0.8,-0.4 v 0 C 111.50001,74 113.30001,48.1 100.90001,28.8 Z M 35.4,72.4 c -1.2,6.9 -2.8,16.4 -1.3,30.8 v 0 C 30.3,101.3 26.7,98.9 23.4,96 14.6,88.3 8.6,77.8 6.6,66.5 4.7,55.6 6.5,44.5 11.7,35.2 v 0 0 c 0,0 0,0 0,0 2,2.1 4.4,4.5 6.9,6.9 6.1,6.1 13.1,13 16.5,17.9 2,2.8 1.4,6.4 0.3,12.4 M 88.9,26.7 C 77.6,38.1 66.9,44.3 57.2,45 49.7,45.6 41.8,43.3 33.7,38.4 27,34.3 21.8,29.4 18.7,26.5 l -0.3,-0.3 v 0 0 C 24,20.3 31,15.9 38.9,13.5 c 0,0 0,0 0,0 v 0 c 0,0 0,0 0,0 -0.8,3.1 -1,6.4 -0.5,9.7 0.9,5.9 4,11.1 8.3,14.3 3.4,2.5 7.4,3.5 11.3,2.9 3.9,-0.6 7.4,-2.8 9.8,-6.2 C 71,29.8 72.3,23.9 71.4,18 71.2,16.9 71,15.8 70.7,14.8 v 0 c 5.7,2.2 10.9,5.3 15.5,9.4 0.9,0.7 1.8,1.5 2.7,2.5 z"/>
    <path fill="#000" class="logo__text stc-logo"
       d="M 279.3,57 H 270 v 10.5 c 0,2.5 1.4,4.1 3.9,4.1 1.7,0 3.2,-0.4 5.4,-1.5 v 5.8 c -2.8,1.2 -4.9,1.6 -7.4,1.6 -5.3,0 -9.9,-2.4 -9.9,-9.6 v -11 h -3.7 v -1.5 l 10.7,-12 h 1 v 8 h 9.3 z m 109.8,8.5 c -5.4,2.6 -8.7,4.1 -13.7,4.1 -7.9,0 -13.5,-4.8 -13.5,-11.6 0,-6.7 5.7,-11.5 13.7,-11.5 4.6,0 8.9,1.6 13,3.9 V 42 c -3.7,-2.2 -8.4,-3.3 -13.7,-3.3 -14.5,0 -22.7,9.4 -22.7,19.5 0,9.7 7.3,19.3 22,19.3 5.6,0 9.6,-1 14.8,-3.8 v -8.2 z m -195.9,8.2 -5.7,3.8 c -2.5,-0.5 -4.1,-1.8 -5,-3.2 -1.5,1.4 -3.5,3.2 -7.6,3.2 -8.6,0 -12.1,-7.7 -12.1,-13.2 0,-6.1 3.8,-13.3 12.3,-13.3 3.4,0 5.5,1.1 6.7,1.7 v -1.2 h 8 v 16.7 c 0,2.3 0.5,4.9 3.4,5.5 z M 181.8,57.8 c -0.9,-0.6 -2.4,-1.4 -4.7,-1.4 -4.5,0 -6.1,4.8 -6.1,8.5 0,3.4 1.8,6.9 6.2,6.9 2.4,0 3.6,-1 4.5,-1.7 V 57.8 Z m 65.4,7.8 h -18.3 c 0.3,4.5 3.4,7.2 8.4,7.2 3.2,0 5.7,-0.9 9.5,-3.7 v 5 c -4.6,3.4 -9.4,3.4 -11.4,3.4 -9,0 -14.8,-5.2 -14.8,-13.2 0,-7.8 5.6,-13.3 13.5,-13.3 7.4,0 13.5,5.3 13.1,14.6 z m -6.7,-4.2 c -0.3,-3.5 -2.4,-5.6 -5.5,-5.6 -3.2,0 -5.2,2 -5.5,5.6 z m 99.7,4.2 h -18.3 c 0.3,4.5 3.4,7.2 8.4,7.2 3.2,0 5.7,-0.9 9.5,-3.7 v 5 c -4.6,3.4 -9.4,3.4 -11.4,3.4 -9,0 -14.8,-5.2 -14.8,-13.2 0,-7.8 5.6,-13.3 13.4,-13.3 7.5,0 13.6,5.3 13.2,14.6 z m -7,-4.2 c -0.3,-3.5 -2.4,-5.6 -5.5,-5.6 -3.1,0 -5.2,2 -5.5,5.6 z M 291.7,39.3 h -8 v 37.8 h 8 c 0,0 0,-14.4 0,-15.1 0,-2.4 1.7,-5 5.4,-5 2.5,0 4.2,1.8 4.2,5.6 v 14.6 h 8 V 60.8 c 0,-6.9 -4.7,-9.7 -9.4,-9.7 -3.1,0 -5.9,1.3 -8.2,4.3 v 0 z m 111.6,0 h -8 v 37.8 h 8 c 0,0 0,-14.4 0,-15.1 0,-2.4 1.7,-5 5.4,-5 2.5,0 4.1,1.8 4.1,5.6 v 14.6 h 8 V 60.8 c 0,-6.9 -4.7,-9.7 -9.4,-9.7 -3.1,0 -5.9,1.3 -8.2,4.3 v 0 -16.1 z m -246,2.4 c -4.8,-2.1 -8.6,-2.9 -12.8,-2.9 -8.7,0 -14.4,4.3 -14.4,10.9 0,13.6 19.2,11.3 19.2,17.5 0,2.2 -1.9,3.5 -5.5,3.5 -4.2,0 -7.5,-1.3 -12.9,-4.9 v 8.1 c 3.8,1.9 7,3.7 13.6,3.7 8.4,0 14.5,-4.2 14.5,-11.5 0,-13.2 -19.2,-11.6 -19.2,-17.3 0,-1.9 2.2,-3.1 5.5,-3.1 3.2,0 6.5,0.9 12,3.4 z m 272.8,-2.9 c -2.4,0 -4.4,2 -4.4,4.4 0,2.4 2,4.4 4.4,4.4 2.4,0 4.4,-2 4.4,-4.4 0,-2.4 -2,-4.4 -4.4,-4.4 z m 4,12.7 h -8 V 77 h 8 z m 14.2,-12.2 h -8 V 67 c 0,5 1.4,10.3 9.7,10.6 l 2.5,-5.8 c -3.4,-0.7 -4.3,-2.2 -4.3,-6.1 V 39.3 Z m 47.5,12.2 h -8 V 77 h 8 c 0,0 0,-9.9 0,-11.2 0,-4.8 2.5,-7.3 6.6,-7.3 1.3,0 2.6,0.5 4.8,1.9 l 2.2,-7.1 c -2.3,-1.7 -3.7,-2.3 -5.3,-2.3 -2.6,0 -6.3,1.4 -8.3,6.4 z m 41.1,14.1 h -18.3 c 0.3,4.5 3.4,7.2 8.4,7.2 3.2,0 5.7,-0.9 9.5,-3.7 v 5 c -4.6,3.4 -9.4,3.4 -11.4,3.4 -9,0 -14.8,-5.2 -14.8,-13.2 0,-7.8 5.6,-13.3 13.4,-13.3 7.4,0 13.6,5.3 13.2,14.6 z m -7.1,-4.2 c -0.3,-3.5 -2.4,-5.6 -5.5,-5.6 -3.2,0 -5.2,2 -5.5,5.6 z m 28.3,-10.3 c -3.1,0 -5.9,1.3 -8.2,4.3 v -3.9 h -8 v 25.6 h 8 c 0,0 0,-14.5 0,-15.2 0,-2.2 1.7,-4.9 5.4,-4.9 2.5,0 4.1,1.8 4.1,5.6 v 14.6 h 8 V 60.8 c 0.1,-6.9 -4.6,-9.7 -9.3,-9.7 z M 481.8,39.3 h -8 v 13.3 c -2.2,-1 -4.3,-1.6 -6.7,-1.6 -7.3,0 -12.4,5.4 -12.4,13.2 0,7.6 5.1,13.3 12,13.3 2.7,0 4.8,-0.7 7.1,-2.5 v 2 h 8 z m -8,30.8 c -1.7,1.5 -3.1,2.1 -4.8,2.1 -3.8,0 -6.1,-3.1 -6.1,-7.7 0,-5.1 2.4,-8 6.4,-8 1.4,0 3.3,0.7 4.5,1.5 z M 220.3,51.5 h -8.5 l -5.5,14.1 -5.5,-14.1 H 193 L 203.8,77 h 4.9 z"/>
    <path fill="#000" class="logo__text stc-logo"
      d="m 583.46,71.65 c 0,3.3 -2.6,5.9 -5.9,5.9 -3.3,0 -5.9,-2.6 -5.9,-5.9 0,-3.3 2.6,-5.9 5.9,-5.9 3.2,-0.1 5.9,2.6 5.9,5.9 z m -10.7,0 c 0,2.6 2.1,4.8 4.8,4.8 2.6,0 4.8,-2.1 4.8,-4.8 0,-2.6 -2.1,-4.8 -4.8,-4.8 -2.7,0 -4.8,2.1 -4.8,4.8 z m 5.9,3.1 -0.5,-1 c -0.2,-0.4 -0.6,-1 -0.9,-1.2 -0.3,-0.3 -0.5,-0.3 -1,-0.3 h -0.2 v 2.6 h -1.3 v -6.3 h 3.1 c 1.3,0 2,0.8 2,1.8 0,1 -0.6,1.6 -1.7,1.8 v 0 c 0.5,0.2 0.7,0.4 1.3,1.5 l 0.7,1.3 h -1.5 z m -1.3,-3.6 c 0.9,0 1.2,-0.4 1.2,-0.9 0,-0.6 -0.4,-0.9 -1.3,-0.9 h -1.2 v 1.7 h 1.3 z"/>
  </g>
</svg>